#!OML:ASF H:\Not Pregnant\Project 1\Capture day 1\Session 1\non-pregnant.ASF
:FULLY-SPECIFIED
:DEGREES
1673
root 1.85444 16.0563 25.6808 49.7548 -68.4435 -34.0478
lowerback 2.81229 0.423652 3.17243
upperback -7.28476 0.72087 0.496435
thorax -9.2341 0.0897448 -1.31772
lowerneck 18.9176 -11.2055 -26.4643
upperneck -19.747 -19.3111 49.3267
head 0.717011 -13.8637 26.6077
rclavicle -2.43511e-014 -4.13472e-014
rhumerus -45.3316 -12.9145 -71.9974
rradius 22.1566
rwrist 36.5168
rhand -7.90596 4.93363
rfingers 7.12502
rthumb 17.9993 -24.2535
lclavicle -2.43511e-014 -4.13472e-014
lhumerus -42.524 -5.80115 78.1967
lradius 35.5813
lwrist 34.5117
lhand -16.196 -12.4613
lfingers 7.12502
lthumb 10.0111 17.2807
rfemur -27.4765 -4.07213 27.3858
rtibia 32.107
rfoot -15.5709 -0.179354
rtoes -19.0516
lfemur -393.711 2.54184 -371.374
ltibia 35.1789
lfoot -20.0768 -11.3317
ltoes -20.1574
1674
root 1.85409 16.064 25.6669 50.2332 -68.6736 -34.477
lowerback 2.51816 0.491941 3.1846
upperback -7.39074 0.79366 0.439092
thorax -9.17181 0.119495 -1.38989
lowerneck 18.9701 -11.2013 -26.5285
upperneck -19.4928 -19.3894 49.2289
head 0.794623 -13.8796 26.4887
rclavicle 1.2921e-014 -4.77083e-015
rhumerus -45.4477 -12.9025 -72.1455
rradius 22.2351
rwrist 36.4323
rhand -8.31923 4.73045
rfingers 7.12502
rthumb 17.6017 -24.4928
lclavicle 1.2921e-014 -4.77083e-015
lhumerus -42.7421 -5.82851 78.0136
lradius 35.5603
lwrist 34.4729
lhand -15.8197 -12.4238
lfingers 7.12502
lthumb 10.3741 17.3003
rfemur -26.997 -4.23433 27.4227
rtibia 31.1124
rfoot -14.9741 -0.373729
rtoes -20.1499
lfemur -393.638 2.81139 -371.362
ltibia 34.9984
lfoot -20.0085 -11.4704
ltoes -19.8461
1675
root 1.85365 16.0712 25.6522 50.7556 -68.9253 -34.9547
lowerback 2.235 0.566284 3.19396
upperback -7.4971 0.874717 0.38118
thorax -9.116 0.153356 -1.46148
lowerneck 19.0177 -11.1889 -26.6068
upperneck -19.2275 -19.4617 49.1279
head 0.874764 -13.8909 26.3759
rclavicle 1.0635e-014 -2.54444e-014
rhumerus -45.54 -13.0171 -72.2429
rradius 22.3006
rwrist 36.4192
rhand -8.60459 4.56643
rfingers 7.12502
rthumb 17.327 -24.6812
lclavicle 1.0635e-014 -2.54444e-014
lhumerus -42.9516 -5.83155 77.8295
lradius 35.5318
lwrist 34.3971
lhand -15.5196 -12.3638
lfingers 7.12502
lthumb 10.6635 17.3456
rfemur -26.5561 -4.32845 27.4494
rtibia 30.147
rfoot -14.4574 -0.356293
rtoes -21.2052
lfemur -393.561 3.08137 -371.35
ltibia 34.8283
lfoot -19.9382 -11.5833
ltoes -19.5655
1676
root 1.85333 16.0777 25.6367 51.3136 -69.197 -35.4697
lowerback 1.96496 0.646536 3.19942
upperback -7.60616 0.963981 0.324307
thorax -9.07051 0.191324 -1.53017
lowerneck 19.0644 -11.161 -26.7173
upperneck -18.9513 -19.5252 49.0288
head 0.959395 -13.8967 26.2842
rclavicle 2.39536e-014 -3.65764e-014
rhumerus -45.6083 -13.1352 -72.3588
rradius 22.3798
rwrist 36.3417
rhand -8.77439 4.39502
rfingers 7.12502
rthumb 17.1636 -24.8669
lclavicle 2.39536e-014 -3.65764e-014
lhumerus -43.1602 -5.82548 77.6642
lradius 35.5036
lwrist 34.2828
lhand -15.3474 -12.2736
lfingers 7.12502
lthumb 10.8297 17.4272
rfemur -26.1635 -4.38099 27.4707
rtibia 29.2267
rfoot -14.0429 -0.144766
rtoes -22.0102
lfemur -393.484 3.34384 -371.341
ltibia 34.6694
lfoot -19.8672 -11.6555
ltoes -19.3463
1677
root 1.85344 16.0837 25.6202 51.9245 -69.4949 -36.0337
lowerback 1.70243 0.73581 3.19357
upperback -7.7174 1.06474 0.265658
thorax -9.03129 0.235511 -1.59499
lowerneck 19.1062 -11.1335 -26.8274
upperneck -18.6754 -19.5867 48.9243
head 1.04267 -13.9004 26.1881
rclavicle 2.17669e-014 3.02153e-014
rhumerus -45.6557 -13.4392 -72.3779
rradius 22.4262
rwrist 36.3975
rhand -8.86423 4.27111
rfingers 7.12502
rthumb 17.0771 -24.9983
lclavicle 2.17669e-014 3.02153e-014
lhumerus -43.3612 -5.80665 77.5094
lradius 35.4751
lwrist 34.1368
lhand -15.2796 -12.1636
lfingers 7.12502
lthumb 10.8951 17.5338
rfemur -25.8301 -4.36961 27.4863
rtibia 28.3653
rfoot -13.7132 0.15941
rtoes -22.5104
lfemur -393.415 3.60698 -371.338
ltibia 34.5233
lfoot -19.7942 -11.6876
ltoes -19.1587
1678
root 1.85407 16.0889 25.6028 52.5747 -69.8106 -36.6358
lowerback 1.45307 0.832461 3.18801
upperback -7.82916 1.17543 0.199007
thorax -8.99968 0.284085 -1.66892
lowerneck 19.1405 -11.1002 -26.9357
upperneck -18.3959 -19.6385 48.82
head 1.12343 -13.899 26.0973
rclavicle -5.34234e-014 1.74931e-014
rhumerus -45.6854 -13.94 -72.2977
rradius 22.4294
rwrist 36.5804
rhand -8.85611 4.23407
rfingers 7.12502
rthumb 17.0849 -25.0347
lclavicle -5.34234e-014 1.74931e-014
lhumerus -43.5497 -5.77471 77.3503
lradius 35.4499
lwrist 33.9747
lhand -15.2992 -12.0467
lfingers 7.12502
lthumb 10.8762 17.6516
rfemur -25.5573 -4.38927 27.5146
rtibia 27.5771
rfoot -13.4572 0.55248
rtoes -22.729
lfemur -393.352 3.86041 -371.343
ltibia 34.3899
lfoot -19.7349 -11.6491
ltoes -19.154
1679
root 1.85512 16.0935 25.5847 53.2885 -70.14 -37.3024
lowerback 1.21153 0.937147 3.18875
upperback -7.93913 1.2975 0.130318
thorax -8.96987 0.337708 -1.749
lowerneck 19.1681 -11.0674 -27.0439
upperneck -18.1195 -19.6882 48.7139
head 1.20342 -13.896 26.0056
rclavicle -8.94531e-016 -5.40694e-014
rhumerus -45.6838 -14.509 -72.2162
rradius 22.4215
rwrist 36.7785
rhand -8.80168 4.18372
rfingers 7.12502
rthumb 17.1373 -25.0805
lclavicle -8.94531e-016 -5.40694e-014
lhumerus -43.7269 -5.71645 77.1889
lradius 35.4277
lwrist 33.8128
lhand -15.3822 -11.9377
lfingers 7.12502
lthumb 10.7961 17.7648
rfemur -25.3378 -4.39446 27.5563
rtibia 26.871
rfoot -13.255 0.915555
rtoes -22.85
lfemur -393.292 4.10539 -371.342
ltibia 34.2677
lfoot -19.6719 -11.5712
ltoes -19.1651
